M48
;GenerationSoftware,Autodesk,EAGLE,9.2.2*%
;CreationDate,2018-11-28T16:58:01Z*%
FMAT,2
ICI,OFF
METRIC,TZ,000.000
T3C0.711
T2C0.813
T1C1.194
%
G90
M71
T1
X96480Y38100
X91480Y38100
X110450Y39370
X105450Y39370
T2
X109474Y48260
X111506Y48260
X91440Y50800
X101600Y36830
X74930Y59690
X64770Y59690
X82550Y46990
X72390Y46990
X87630Y55880
X97790Y55880
X66040Y52070
X66040Y41910
X71120Y43180
X81280Y43180
X91440Y53340
X101600Y46990
X68580Y57150
X68580Y54610
X76200Y54610
X76200Y57150
X68580Y52070
X68580Y49530
X76200Y52070
X76200Y49530
X99060Y45720
X99060Y48260
X91440Y48260
X91440Y45720
X99060Y50800
X99060Y53340
T3
X104140Y50419
X104140Y48641
M30