G04 EAGLE Gerber RS-274X export*
G75*
%MOMM*%
%FSLAX34Y34*%
%LPD*%
%INSoldermask Top*%
%IPPOS*%
%AMOC8*
5,1,8,0,0,1.08239X$1,22.5*%
G01*
%ADD10P,1.539592X8X292.500000*%
%ADD11C,1.422400*%
%ADD12P,1.649562X8X22.500000*%
%ADD13C,1.524000*%
%ADD14C,1.993900*%
%ADD15P,1.649562X8X202.500000*%
%ADD16P,1.649562X8X292.500000*%
%ADD17P,1.649562X8X112.500000*%
%ADD18C,1.524000*%


D10*
X1041400Y486410D03*
D11*
X1041400Y504190D03*
D12*
X1115060Y482600D03*
D13*
X1094740Y482600D03*
D14*
X1054500Y402654D02*
X1054500Y384747D01*
X1104500Y384747D02*
X1104500Y402654D01*
X914800Y389954D02*
X914800Y372047D01*
X964800Y372047D02*
X964800Y389954D01*
D15*
X749300Y596900D03*
X647700Y596900D03*
X825500Y469900D03*
X723900Y469900D03*
D12*
X876300Y558800D03*
X977900Y558800D03*
D16*
X660400Y520700D03*
X660400Y419100D03*
D12*
X711200Y431800D03*
X812800Y431800D03*
D17*
X1016000Y368300D03*
X1016000Y469900D03*
D18*
X692404Y571500D02*
X679196Y571500D01*
X679196Y546100D02*
X692404Y546100D01*
X755396Y546100D02*
X768604Y546100D01*
X768604Y571500D02*
X755396Y571500D01*
X692404Y520700D02*
X679196Y520700D01*
X679196Y495300D02*
X692404Y495300D01*
X755396Y520700D02*
X768604Y520700D01*
X768604Y495300D02*
X755396Y495300D01*
X983996Y457200D02*
X997204Y457200D01*
X997204Y482600D02*
X983996Y482600D01*
X921004Y482600D02*
X907796Y482600D01*
X907796Y457200D02*
X921004Y457200D01*
X983996Y508000D02*
X997204Y508000D01*
X997204Y533400D02*
X983996Y533400D01*
X921004Y508000D02*
X907796Y508000D01*
X907796Y533400D02*
X921004Y533400D01*
M02*
