G04 EAGLE Gerber RS-274X export*
G75*
%MOMM*%
%FSLAX34Y34*%
%LPD*%
%INBottom Copper*%
%IPPOS*%
%AMOC8*
5,1,8,0,0,1.08239X$1,22.5*%
G01*
%ADD10C,0.152400*%
%ADD11R,1.600000X1.800000*%
%ADD12R,1.800000X1.600000*%
%ADD13P,1.319650X8X292.500000*%
%ADD14C,1.219200*%
%ADD15P,1.429621X8X22.500000*%
%ADD16C,1.320800*%
%ADD17C,1.790700*%
%ADD18P,1.429621X8X202.500000*%
%ADD19P,1.429621X8X292.500000*%
%ADD20P,1.429621X8X112.500000*%
%ADD21C,1.320800*%
%ADD22C,1.270000*%
%ADD23C,0.762000*%
%ADD24C,0.812800*%
%ADD25C,0.254000*%

G36*
X1143018Y302771D02*
X1143018Y302771D01*
X1143036Y302769D01*
X1143218Y302790D01*
X1143401Y302809D01*
X1143418Y302814D01*
X1143435Y302816D01*
X1143610Y302873D01*
X1143786Y302927D01*
X1143801Y302935D01*
X1143818Y302941D01*
X1143978Y303031D01*
X1144140Y303119D01*
X1144153Y303130D01*
X1144169Y303139D01*
X1144308Y303259D01*
X1144449Y303376D01*
X1144460Y303390D01*
X1144474Y303402D01*
X1144586Y303547D01*
X1144701Y303690D01*
X1144709Y303706D01*
X1144720Y303720D01*
X1144802Y303885D01*
X1144887Y304047D01*
X1144892Y304064D01*
X1144900Y304081D01*
X1144947Y304259D01*
X1144998Y304434D01*
X1145000Y304452D01*
X1145004Y304469D01*
X1145031Y304800D01*
X1145031Y635000D01*
X1145029Y635018D01*
X1145031Y635036D01*
X1145010Y635218D01*
X1144991Y635401D01*
X1144986Y635418D01*
X1144984Y635435D01*
X1144927Y635610D01*
X1144873Y635786D01*
X1144865Y635801D01*
X1144859Y635818D01*
X1144769Y635978D01*
X1144681Y636140D01*
X1144670Y636153D01*
X1144661Y636169D01*
X1144541Y636308D01*
X1144424Y636449D01*
X1144410Y636460D01*
X1144398Y636474D01*
X1144253Y636586D01*
X1144110Y636701D01*
X1144094Y636709D01*
X1144080Y636720D01*
X1143915Y636802D01*
X1143753Y636887D01*
X1143736Y636892D01*
X1143720Y636900D01*
X1143541Y636947D01*
X1143366Y636998D01*
X1143348Y637000D01*
X1143331Y637004D01*
X1143000Y637031D01*
X609600Y637031D01*
X609582Y637029D01*
X609564Y637031D01*
X609382Y637010D01*
X609199Y636991D01*
X609182Y636986D01*
X609165Y636984D01*
X608990Y636927D01*
X608814Y636873D01*
X608799Y636865D01*
X608782Y636859D01*
X608622Y636769D01*
X608460Y636681D01*
X608447Y636670D01*
X608431Y636661D01*
X608292Y636541D01*
X608151Y636424D01*
X608140Y636410D01*
X608127Y636398D01*
X608014Y636253D01*
X607899Y636110D01*
X607891Y636094D01*
X607880Y636080D01*
X607798Y635915D01*
X607713Y635753D01*
X607708Y635736D01*
X607700Y635720D01*
X607653Y635541D01*
X607602Y635366D01*
X607600Y635348D01*
X607596Y635331D01*
X607569Y635000D01*
X607569Y304800D01*
X607571Y304782D01*
X607569Y304764D01*
X607590Y304582D01*
X607609Y304399D01*
X607614Y304382D01*
X607616Y304365D01*
X607673Y304190D01*
X607727Y304014D01*
X607735Y303999D01*
X607741Y303982D01*
X607831Y303822D01*
X607919Y303660D01*
X607930Y303647D01*
X607939Y303631D01*
X608059Y303492D01*
X608176Y303351D01*
X608190Y303340D01*
X608202Y303327D01*
X608347Y303214D01*
X608490Y303099D01*
X608506Y303091D01*
X608520Y303080D01*
X608685Y302998D01*
X608847Y302913D01*
X608864Y302908D01*
X608881Y302900D01*
X609059Y302853D01*
X609234Y302802D01*
X609252Y302800D01*
X609269Y302796D01*
X609600Y302769D01*
X1143000Y302769D01*
X1143018Y302771D01*
G37*
%LPC*%
G36*
X1051708Y370712D02*
X1051708Y370712D01*
X1046550Y372849D01*
X1042602Y376797D01*
X1040466Y381955D01*
X1040466Y405445D01*
X1042602Y410603D01*
X1046550Y414551D01*
X1046778Y414646D01*
X1051682Y416677D01*
X1051708Y416688D01*
X1053656Y416688D01*
X1053677Y416690D01*
X1053698Y416688D01*
X1053877Y416710D01*
X1054057Y416728D01*
X1054077Y416734D01*
X1054098Y416736D01*
X1054269Y416793D01*
X1054442Y416846D01*
X1054460Y416856D01*
X1054481Y416862D01*
X1054637Y416952D01*
X1054796Y417038D01*
X1054812Y417051D01*
X1054831Y417062D01*
X1054967Y417180D01*
X1055105Y417295D01*
X1055118Y417312D01*
X1055134Y417326D01*
X1055245Y417469D01*
X1055357Y417609D01*
X1055367Y417628D01*
X1055380Y417645D01*
X1055460Y417807D01*
X1055543Y417966D01*
X1055549Y417987D01*
X1055558Y418006D01*
X1055604Y418180D01*
X1055654Y418353D01*
X1055656Y418374D01*
X1055662Y418395D01*
X1055688Y418726D01*
X1055654Y429086D01*
X1055488Y479795D01*
X1055488Y479800D01*
X1055488Y479806D01*
X1055467Y480001D01*
X1055447Y480195D01*
X1055445Y480201D01*
X1055445Y480206D01*
X1055385Y480395D01*
X1055328Y480580D01*
X1055325Y480585D01*
X1055323Y480590D01*
X1055228Y480763D01*
X1055135Y480933D01*
X1055131Y480937D01*
X1055128Y480942D01*
X1055003Y481090D01*
X1054876Y481242D01*
X1054871Y481245D01*
X1054868Y481249D01*
X1054717Y481369D01*
X1054561Y481493D01*
X1054556Y481496D01*
X1054552Y481499D01*
X1054378Y481587D01*
X1054204Y481677D01*
X1054198Y481679D01*
X1054193Y481681D01*
X1054006Y481734D01*
X1053816Y481787D01*
X1053811Y481788D01*
X1053805Y481789D01*
X1053609Y481804D01*
X1053415Y481819D01*
X1053409Y481818D01*
X1053404Y481819D01*
X1053207Y481794D01*
X1053015Y481771D01*
X1053010Y481769D01*
X1053004Y481768D01*
X1052818Y481706D01*
X1052633Y481645D01*
X1052628Y481642D01*
X1052623Y481640D01*
X1052453Y481542D01*
X1052283Y481446D01*
X1052279Y481442D01*
X1052274Y481439D01*
X1052021Y481224D01*
X1046030Y475233D01*
X1043638Y475233D01*
X1043611Y475231D01*
X1043585Y475233D01*
X1043411Y475211D01*
X1043237Y475193D01*
X1043212Y475186D01*
X1043185Y475182D01*
X1043019Y475126D01*
X1042852Y475075D01*
X1042829Y475062D01*
X1042804Y475054D01*
X1042652Y474967D01*
X1042498Y474883D01*
X1042478Y474866D01*
X1042455Y474853D01*
X1042202Y474638D01*
X1032713Y465149D01*
X1029926Y462363D01*
X1026659Y461009D01*
X1024475Y461009D01*
X1024449Y461007D01*
X1024422Y461009D01*
X1024248Y460987D01*
X1024075Y460969D01*
X1024049Y460962D01*
X1024023Y460958D01*
X1023857Y460903D01*
X1023690Y460851D01*
X1023666Y460838D01*
X1023641Y460830D01*
X1023489Y460743D01*
X1023336Y460659D01*
X1023315Y460642D01*
X1023292Y460629D01*
X1023039Y460414D01*
X1020840Y458215D01*
X1011160Y458215D01*
X1009808Y459567D01*
X1009678Y459674D01*
X1009551Y459785D01*
X1009522Y459801D01*
X1009497Y459822D01*
X1009348Y459901D01*
X1009202Y459985D01*
X1009170Y459995D01*
X1009141Y460011D01*
X1008980Y460059D01*
X1008820Y460112D01*
X1008787Y460116D01*
X1008755Y460126D01*
X1008587Y460141D01*
X1008420Y460162D01*
X1008387Y460159D01*
X1008354Y460162D01*
X1008186Y460144D01*
X1008019Y460131D01*
X1007987Y460122D01*
X1007954Y460119D01*
X1007793Y460068D01*
X1007631Y460022D01*
X1007602Y460007D01*
X1007570Y459997D01*
X1007423Y459916D01*
X1007273Y459839D01*
X1007247Y459818D01*
X1007218Y459802D01*
X1007089Y459693D01*
X1006957Y459589D01*
X1006936Y459563D01*
X1006911Y459542D01*
X1006806Y459410D01*
X1006698Y459281D01*
X1006682Y459252D01*
X1006665Y459231D01*
X992631Y459231D01*
X992631Y466345D01*
X997924Y466345D01*
X999345Y466120D01*
X1000714Y465675D01*
X1001362Y465345D01*
X1001449Y465311D01*
X1001531Y465268D01*
X1001636Y465238D01*
X1001737Y465199D01*
X1001829Y465182D01*
X1001918Y465157D01*
X1002027Y465148D01*
X1002133Y465129D01*
X1002227Y465131D01*
X1002320Y465124D01*
X1002427Y465136D01*
X1002536Y465139D01*
X1002627Y465160D01*
X1002719Y465171D01*
X1002823Y465204D01*
X1002929Y465228D01*
X1003014Y465267D01*
X1003102Y465296D01*
X1003197Y465349D01*
X1003296Y465393D01*
X1003372Y465448D01*
X1003453Y465493D01*
X1003535Y465564D01*
X1003623Y465628D01*
X1003687Y465696D01*
X1003758Y465757D01*
X1003824Y465842D01*
X1003898Y465922D01*
X1003947Y466001D01*
X1004004Y466075D01*
X1004053Y466172D01*
X1004110Y466264D01*
X1004142Y466352D01*
X1004184Y466435D01*
X1004212Y466540D01*
X1004249Y466642D01*
X1004264Y466734D01*
X1004288Y466824D01*
X1004299Y466958D01*
X1004312Y467040D01*
X1004310Y467089D01*
X1004315Y467155D01*
X1004315Y469858D01*
X1004314Y469872D01*
X1004315Y469885D01*
X1004294Y470071D01*
X1004275Y470259D01*
X1004271Y470272D01*
X1004270Y470285D01*
X1004212Y470464D01*
X1004157Y470644D01*
X1004151Y470655D01*
X1004147Y470668D01*
X1004055Y470833D01*
X1003965Y470998D01*
X1003957Y471008D01*
X1003950Y471020D01*
X1003828Y471162D01*
X1003708Y471307D01*
X1003697Y471315D01*
X1003689Y471326D01*
X1003541Y471441D01*
X1003394Y471559D01*
X1003382Y471565D01*
X1003372Y471574D01*
X1003203Y471658D01*
X1003037Y471745D01*
X1003024Y471749D01*
X1003012Y471755D01*
X1002831Y471804D01*
X1002650Y471856D01*
X1002636Y471857D01*
X1002623Y471861D01*
X1002435Y471874D01*
X1002248Y471889D01*
X1002235Y471888D01*
X1002222Y471888D01*
X1002034Y471864D01*
X1001849Y471842D01*
X1001836Y471838D01*
X1001823Y471836D01*
X1001507Y471735D01*
X999528Y470915D01*
X981672Y470915D01*
X977377Y472694D01*
X974090Y475981D01*
X972311Y480276D01*
X972311Y483640D01*
X972309Y483666D01*
X972311Y483693D01*
X972289Y483867D01*
X972271Y484040D01*
X972264Y484066D01*
X972260Y484092D01*
X972204Y484258D01*
X972153Y484425D01*
X972140Y484449D01*
X972132Y484474D01*
X972045Y484625D01*
X971961Y484779D01*
X971944Y484800D01*
X971931Y484823D01*
X971716Y485076D01*
X969435Y487358D01*
X966412Y490380D01*
X966405Y490386D01*
X966400Y490393D01*
X966250Y490513D01*
X966101Y490635D01*
X966093Y490639D01*
X966086Y490645D01*
X965916Y490733D01*
X965745Y490824D01*
X965736Y490826D01*
X965729Y490830D01*
X965544Y490883D01*
X965359Y490939D01*
X965350Y490939D01*
X965342Y490942D01*
X965151Y490957D01*
X964958Y490975D01*
X964949Y490974D01*
X964940Y490975D01*
X964751Y490952D01*
X964558Y490932D01*
X964549Y490929D01*
X964541Y490928D01*
X964359Y490868D01*
X964174Y490810D01*
X964166Y490806D01*
X964158Y490803D01*
X963989Y490708D01*
X963822Y490615D01*
X963815Y490609D01*
X963807Y490605D01*
X963661Y490479D01*
X963515Y490355D01*
X963509Y490348D01*
X963502Y490342D01*
X963385Y490190D01*
X963265Y490039D01*
X963261Y490031D01*
X963256Y490024D01*
X963170Y489852D01*
X963083Y489680D01*
X963080Y489671D01*
X963076Y489663D01*
X963026Y489477D01*
X962975Y489292D01*
X962974Y489283D01*
X962972Y489274D01*
X962945Y488944D01*
X962945Y447912D01*
X962947Y447894D01*
X962945Y447876D01*
X962966Y447694D01*
X962985Y447511D01*
X962990Y447494D01*
X962992Y447477D01*
X963049Y447302D01*
X963103Y447126D01*
X963111Y447111D01*
X963117Y447094D01*
X963207Y446934D01*
X963295Y446772D01*
X963306Y446759D01*
X963315Y446743D01*
X963435Y446604D01*
X963552Y446463D01*
X963566Y446452D01*
X963578Y446438D01*
X963723Y446326D01*
X963866Y446211D01*
X963882Y446203D01*
X963896Y446192D01*
X964061Y446110D01*
X964223Y446025D01*
X964240Y446020D01*
X964256Y446012D01*
X964435Y445965D01*
X964610Y445914D01*
X964628Y445912D01*
X964645Y445908D01*
X964976Y445881D01*
X972911Y445881D01*
X974778Y445107D01*
X976207Y443678D01*
X976981Y441811D01*
X976981Y421789D01*
X976207Y419922D01*
X974778Y418493D01*
X972911Y417719D01*
X954889Y417719D01*
X953022Y418493D01*
X951593Y419922D01*
X950819Y421789D01*
X950819Y423683D01*
X950818Y423692D01*
X950819Y423701D01*
X950799Y423891D01*
X950779Y424083D01*
X950777Y424092D01*
X950776Y424101D01*
X950718Y424283D01*
X950661Y424468D01*
X950657Y424476D01*
X950654Y424485D01*
X950561Y424653D01*
X950469Y424822D01*
X950464Y424829D01*
X950459Y424837D01*
X950335Y424984D01*
X950212Y425132D01*
X950205Y425137D01*
X950199Y425144D01*
X950048Y425263D01*
X949898Y425384D01*
X949890Y425388D01*
X949883Y425394D01*
X949710Y425481D01*
X949541Y425569D01*
X949532Y425572D01*
X949524Y425576D01*
X949338Y425628D01*
X949154Y425681D01*
X949145Y425682D01*
X949136Y425684D01*
X948943Y425698D01*
X948752Y425714D01*
X948744Y425713D01*
X948735Y425713D01*
X948542Y425689D01*
X948353Y425667D01*
X948344Y425664D01*
X948335Y425663D01*
X948152Y425602D01*
X947970Y425542D01*
X947962Y425538D01*
X947954Y425535D01*
X947788Y425439D01*
X947619Y425344D01*
X947612Y425338D01*
X947605Y425334D01*
X947352Y425119D01*
X944694Y422462D01*
X942076Y419843D01*
X942059Y419822D01*
X942038Y419805D01*
X941931Y419667D01*
X941821Y419532D01*
X941808Y419508D01*
X941792Y419487D01*
X941714Y419330D01*
X941632Y419176D01*
X941624Y419150D01*
X941612Y419126D01*
X941567Y418957D01*
X941517Y418790D01*
X941515Y418763D01*
X941508Y418737D01*
X941481Y418407D01*
X941481Y409089D01*
X940707Y407222D01*
X939278Y405793D01*
X937411Y405019D01*
X919389Y405019D01*
X917522Y405793D01*
X916093Y407222D01*
X915319Y409089D01*
X915319Y429111D01*
X916093Y430978D01*
X917522Y432407D01*
X918776Y432927D01*
X919389Y433181D01*
X928624Y433181D01*
X928642Y433183D01*
X928660Y433181D01*
X928842Y433202D01*
X929025Y433221D01*
X929042Y433226D01*
X929059Y433228D01*
X929234Y433285D01*
X929410Y433339D01*
X929425Y433347D01*
X929442Y433353D01*
X929602Y433443D01*
X929764Y433531D01*
X929777Y433542D01*
X929793Y433551D01*
X929932Y433671D01*
X930073Y433788D01*
X930084Y433802D01*
X930098Y433814D01*
X930210Y433959D01*
X930325Y434102D01*
X930333Y434118D01*
X930344Y434132D01*
X930426Y434297D01*
X930511Y434459D01*
X930516Y434476D01*
X930524Y434492D01*
X930571Y434671D01*
X930622Y434846D01*
X930624Y434864D01*
X930628Y434881D01*
X930655Y435212D01*
X930655Y445510D01*
X930654Y445524D01*
X930655Y445537D01*
X930634Y445723D01*
X930615Y445911D01*
X930611Y445924D01*
X930610Y445937D01*
X930552Y446116D01*
X930497Y446296D01*
X930491Y446308D01*
X930487Y446320D01*
X930395Y446485D01*
X930305Y446650D01*
X930297Y446660D01*
X930290Y446672D01*
X930168Y446815D01*
X930048Y446959D01*
X930037Y446967D01*
X930029Y446978D01*
X929880Y447094D01*
X929734Y447211D01*
X929722Y447218D01*
X929712Y447226D01*
X929543Y447311D01*
X929377Y447397D01*
X929364Y447401D01*
X929352Y447407D01*
X929170Y447456D01*
X928990Y447508D01*
X928976Y447509D01*
X928963Y447513D01*
X928775Y447526D01*
X928588Y447541D01*
X928575Y447540D01*
X928562Y447541D01*
X928374Y447516D01*
X928189Y447494D01*
X928176Y447490D01*
X928163Y447488D01*
X927847Y447387D01*
X923328Y445515D01*
X907022Y445515D01*
X906996Y445513D01*
X906969Y445515D01*
X906795Y445493D01*
X906621Y445475D01*
X906596Y445468D01*
X906569Y445464D01*
X906404Y445409D01*
X906237Y445357D01*
X906213Y445344D01*
X906188Y445336D01*
X906036Y445249D01*
X905883Y445165D01*
X905862Y445148D01*
X905839Y445135D01*
X905586Y444920D01*
X894774Y434108D01*
X894768Y434101D01*
X894761Y434096D01*
X894641Y433946D01*
X894519Y433797D01*
X894514Y433789D01*
X894509Y433782D01*
X894420Y433611D01*
X894330Y433441D01*
X894328Y433433D01*
X894323Y433425D01*
X894270Y433239D01*
X894215Y433055D01*
X894214Y433046D01*
X894212Y433038D01*
X894196Y432846D01*
X894179Y432654D01*
X894180Y432645D01*
X894179Y432636D01*
X894201Y432447D01*
X894222Y432254D01*
X894225Y432245D01*
X894226Y432237D01*
X894285Y432055D01*
X894344Y431870D01*
X894348Y431862D01*
X894351Y431854D01*
X894446Y431685D01*
X894539Y431518D01*
X894544Y431511D01*
X894549Y431503D01*
X894675Y431357D01*
X894799Y431211D01*
X894806Y431205D01*
X894812Y431198D01*
X894963Y431081D01*
X895115Y430961D01*
X895123Y430957D01*
X895130Y430952D01*
X895302Y430866D01*
X895474Y430779D01*
X895483Y430776D01*
X895491Y430772D01*
X895677Y430722D01*
X895862Y430671D01*
X895871Y430670D01*
X895879Y430668D01*
X896210Y430641D01*
X896401Y430641D01*
X896401Y423099D01*
X889859Y423099D01*
X889859Y424290D01*
X889858Y424299D01*
X889859Y424308D01*
X889838Y424501D01*
X889819Y424691D01*
X889817Y424699D01*
X889816Y424708D01*
X889757Y424892D01*
X889701Y425075D01*
X889697Y425083D01*
X889694Y425092D01*
X889601Y425260D01*
X889509Y425429D01*
X889504Y425436D01*
X889499Y425444D01*
X889375Y425591D01*
X889252Y425739D01*
X889245Y425744D01*
X889239Y425751D01*
X889087Y425871D01*
X888938Y425991D01*
X888930Y425995D01*
X888923Y426001D01*
X888750Y426089D01*
X888581Y426177D01*
X888572Y426179D01*
X888564Y426183D01*
X888378Y426235D01*
X888194Y426288D01*
X888185Y426289D01*
X888176Y426291D01*
X887983Y426305D01*
X887792Y426321D01*
X887784Y426320D01*
X887775Y426320D01*
X887582Y426296D01*
X887393Y426274D01*
X887384Y426271D01*
X887375Y426270D01*
X887193Y426209D01*
X887010Y426149D01*
X887002Y426145D01*
X886994Y426142D01*
X886827Y426046D01*
X886659Y425951D01*
X886652Y425945D01*
X886645Y425941D01*
X886392Y425726D01*
X848176Y387511D01*
X844675Y384009D01*
X840474Y382269D01*
X839929Y382269D01*
X839902Y382267D01*
X839875Y382269D01*
X839702Y382247D01*
X839528Y382229D01*
X839503Y382222D01*
X839476Y382218D01*
X839310Y382163D01*
X839143Y382111D01*
X839120Y382098D01*
X839094Y382090D01*
X838943Y382003D01*
X838789Y381919D01*
X838769Y381902D01*
X838745Y381889D01*
X838492Y381674D01*
X838288Y381469D01*
X834253Y379798D01*
X834086Y379729D01*
X698766Y379729D01*
X694565Y381469D01*
X686994Y389040D01*
X686973Y389057D01*
X686956Y389078D01*
X686818Y389185D01*
X686683Y389295D01*
X686659Y389308D01*
X686638Y389324D01*
X686481Y389402D01*
X686327Y389484D01*
X686301Y389492D01*
X686277Y389504D01*
X686108Y389549D01*
X685941Y389599D01*
X685914Y389601D01*
X685889Y389608D01*
X685558Y389635D01*
X650656Y389635D01*
X646455Y391375D01*
X632675Y405155D01*
X630935Y409356D01*
X630935Y428844D01*
X632675Y433045D01*
X646506Y446876D01*
X646614Y446934D01*
X646638Y446953D01*
X646665Y446969D01*
X646918Y447184D01*
X648374Y448640D01*
X648391Y448661D01*
X648412Y448678D01*
X648519Y448816D01*
X648629Y448951D01*
X648642Y448975D01*
X648658Y448996D01*
X648736Y449153D01*
X648818Y449307D01*
X648826Y449333D01*
X648838Y449357D01*
X648883Y449526D01*
X648933Y449693D01*
X648935Y449720D01*
X648942Y449745D01*
X648969Y450076D01*
X648969Y472174D01*
X650709Y476375D01*
X666916Y492582D01*
X666933Y492603D01*
X666954Y492620D01*
X667061Y492758D01*
X667171Y492893D01*
X667184Y492917D01*
X667200Y492938D01*
X667278Y493095D01*
X667360Y493249D01*
X667368Y493275D01*
X667380Y493299D01*
X667425Y493468D01*
X667475Y493635D01*
X667477Y493662D01*
X667484Y493687D01*
X667511Y494018D01*
X667511Y497624D01*
X669290Y501919D01*
X672577Y505206D01*
X674792Y506123D01*
X674800Y506128D01*
X674809Y506130D01*
X674979Y506223D01*
X675147Y506314D01*
X675154Y506319D01*
X675162Y506324D01*
X675310Y506448D01*
X675458Y506570D01*
X675463Y506577D01*
X675470Y506583D01*
X675590Y506733D01*
X675711Y506883D01*
X675715Y506891D01*
X675721Y506898D01*
X675808Y507067D01*
X675898Y507239D01*
X675901Y507248D01*
X675905Y507256D01*
X675957Y507438D01*
X676011Y507626D01*
X676012Y507635D01*
X676015Y507643D01*
X676029Y507834D01*
X676046Y508027D01*
X676045Y508036D01*
X676046Y508044D01*
X676022Y508235D01*
X676001Y508427D01*
X675998Y508435D01*
X675997Y508444D01*
X675937Y508626D01*
X675878Y508810D01*
X675873Y508818D01*
X675870Y508826D01*
X675775Y508994D01*
X675681Y509162D01*
X675676Y509168D01*
X675671Y509176D01*
X675544Y509322D01*
X675419Y509467D01*
X675412Y509473D01*
X675407Y509480D01*
X675254Y509597D01*
X675102Y509716D01*
X675094Y509720D01*
X675087Y509725D01*
X674792Y509877D01*
X672577Y510794D01*
X672157Y511214D01*
X672136Y511231D01*
X672119Y511252D01*
X671981Y511359D01*
X671845Y511469D01*
X671822Y511482D01*
X671801Y511498D01*
X671644Y511576D01*
X671490Y511658D01*
X671464Y511666D01*
X671440Y511678D01*
X671271Y511723D01*
X671104Y511773D01*
X671077Y511775D01*
X671051Y511782D01*
X670721Y511809D01*
X668875Y511809D01*
X668849Y511807D01*
X668822Y511809D01*
X668648Y511787D01*
X668475Y511769D01*
X668449Y511762D01*
X668423Y511758D01*
X668257Y511703D01*
X668090Y511651D01*
X668066Y511638D01*
X668041Y511630D01*
X667889Y511543D01*
X667736Y511459D01*
X667715Y511442D01*
X667692Y511429D01*
X667439Y511214D01*
X665240Y509015D01*
X655560Y509015D01*
X648715Y515860D01*
X648715Y525540D01*
X653967Y530792D01*
X653973Y530799D01*
X653980Y530804D01*
X654100Y530954D01*
X654222Y531103D01*
X654226Y531111D01*
X654232Y531118D01*
X654320Y531288D01*
X654411Y531459D01*
X654413Y531468D01*
X654417Y531475D01*
X654471Y531660D01*
X654526Y531845D01*
X654526Y531854D01*
X654529Y531862D01*
X654544Y532054D01*
X654562Y532246D01*
X654561Y532255D01*
X654562Y532264D01*
X654539Y532453D01*
X654519Y532646D01*
X654516Y532655D01*
X654515Y532663D01*
X654455Y532845D01*
X654397Y533030D01*
X654393Y533038D01*
X654390Y533046D01*
X654295Y533215D01*
X654202Y533382D01*
X654196Y533389D01*
X654192Y533397D01*
X654066Y533543D01*
X653942Y533689D01*
X653935Y533695D01*
X653929Y533702D01*
X653777Y533819D01*
X653626Y533939D01*
X653618Y533943D01*
X653611Y533948D01*
X653439Y534034D01*
X653267Y534121D01*
X653258Y534124D01*
X653250Y534128D01*
X653064Y534178D01*
X652879Y534229D01*
X652870Y534230D01*
X652861Y534232D01*
X652531Y534259D01*
X651699Y534259D01*
X651699Y540801D01*
X659241Y540801D01*
X659241Y536465D01*
X659068Y535819D01*
X658844Y535432D01*
X658783Y535298D01*
X658716Y535169D01*
X658701Y535115D01*
X658678Y535065D01*
X658645Y534922D01*
X658605Y534782D01*
X658600Y534726D01*
X658588Y534672D01*
X658584Y534526D01*
X658572Y534380D01*
X658578Y534325D01*
X658577Y534270D01*
X658602Y534126D01*
X658619Y533981D01*
X658636Y533928D01*
X658645Y533873D01*
X658698Y533737D01*
X658744Y533598D01*
X658771Y533549D01*
X658791Y533498D01*
X658870Y533374D01*
X658942Y533247D01*
X658978Y533205D01*
X659008Y533158D01*
X659109Y533053D01*
X659205Y532942D01*
X659249Y532908D01*
X659287Y532869D01*
X659407Y532785D01*
X659523Y532696D01*
X659573Y532671D01*
X659618Y532639D01*
X659752Y532582D01*
X659883Y532516D01*
X659937Y532502D01*
X659988Y532480D01*
X660131Y532450D01*
X660272Y532412D01*
X660335Y532407D01*
X660382Y532397D01*
X660466Y532396D01*
X660603Y532385D01*
X665240Y532385D01*
X667439Y530186D01*
X667460Y530169D01*
X667477Y530148D01*
X667615Y530041D01*
X667751Y529931D01*
X667774Y529918D01*
X667795Y529902D01*
X667952Y529824D01*
X668106Y529742D01*
X668132Y529734D01*
X668156Y529722D01*
X668325Y529677D01*
X668492Y529627D01*
X668519Y529625D01*
X668545Y529618D01*
X668875Y529591D01*
X670721Y529591D01*
X670747Y529593D01*
X670774Y529591D01*
X670948Y529613D01*
X671121Y529631D01*
X671147Y529638D01*
X671173Y529642D01*
X671339Y529697D01*
X671506Y529749D01*
X671530Y529762D01*
X671555Y529770D01*
X671707Y529857D01*
X671860Y529941D01*
X671881Y529958D01*
X671904Y529971D01*
X672157Y530186D01*
X672577Y530606D01*
X674792Y531523D01*
X674800Y531528D01*
X674809Y531530D01*
X674979Y531623D01*
X675147Y531714D01*
X675154Y531719D01*
X675162Y531724D01*
X675310Y531848D01*
X675458Y531970D01*
X675463Y531977D01*
X675470Y531983D01*
X675590Y532133D01*
X675711Y532283D01*
X675715Y532291D01*
X675721Y532298D01*
X675808Y532467D01*
X675898Y532639D01*
X675901Y532648D01*
X675905Y532656D01*
X675957Y532838D01*
X676011Y533026D01*
X676012Y533035D01*
X676015Y533043D01*
X676029Y533234D01*
X676046Y533427D01*
X676045Y533436D01*
X676046Y533444D01*
X676022Y533635D01*
X676001Y533827D01*
X675998Y533835D01*
X675997Y533844D01*
X675937Y534026D01*
X675878Y534210D01*
X675873Y534218D01*
X675870Y534226D01*
X675775Y534394D01*
X675681Y534562D01*
X675676Y534568D01*
X675671Y534576D01*
X675544Y534722D01*
X675419Y534867D01*
X675412Y534873D01*
X675407Y534880D01*
X675254Y534997D01*
X675102Y535116D01*
X675094Y535120D01*
X675087Y535125D01*
X674792Y535277D01*
X672577Y536194D01*
X669290Y539481D01*
X668930Y540350D01*
X668915Y540378D01*
X668906Y540407D01*
X668821Y540555D01*
X668740Y540705D01*
X668720Y540729D01*
X668705Y540756D01*
X668490Y541009D01*
X668150Y541349D01*
X668149Y541350D01*
X661295Y548204D01*
X661274Y548221D01*
X661256Y548242D01*
X661119Y548349D01*
X660983Y548459D01*
X660960Y548472D01*
X660938Y548488D01*
X660781Y548566D01*
X660627Y548648D01*
X660602Y548656D01*
X660578Y548668D01*
X660408Y548713D01*
X660242Y548763D01*
X660215Y548765D01*
X660189Y548772D01*
X659858Y548799D01*
X651699Y548799D01*
X651699Y556958D01*
X651697Y556985D01*
X651699Y557012D01*
X651677Y557186D01*
X651659Y557359D01*
X651652Y557384D01*
X651648Y557411D01*
X651593Y557577D01*
X651541Y557744D01*
X651528Y557767D01*
X651520Y557793D01*
X651433Y557944D01*
X651349Y558098D01*
X651332Y558118D01*
X651319Y558142D01*
X651104Y558395D01*
X650375Y559124D01*
X650354Y559141D01*
X650336Y559162D01*
X650199Y559269D01*
X650063Y559379D01*
X650040Y559392D01*
X650018Y559408D01*
X649861Y559486D01*
X649707Y559568D01*
X649682Y559576D01*
X649658Y559588D01*
X649488Y559633D01*
X649322Y559683D01*
X649295Y559685D01*
X649269Y559692D01*
X648938Y559719D01*
X637689Y559719D01*
X635822Y560493D01*
X634393Y561922D01*
X633619Y563789D01*
X633619Y581811D01*
X634393Y583678D01*
X635822Y585107D01*
X637555Y585825D01*
X637575Y585836D01*
X637596Y585843D01*
X637752Y585931D01*
X637910Y586015D01*
X637927Y586030D01*
X637947Y586041D01*
X638082Y586157D01*
X638221Y586272D01*
X638235Y586289D01*
X638252Y586304D01*
X638361Y586445D01*
X638474Y586584D01*
X638485Y586604D01*
X638498Y586622D01*
X638578Y586782D01*
X638661Y586941D01*
X638668Y586962D01*
X638678Y586982D01*
X638724Y587156D01*
X638774Y587327D01*
X638776Y587350D01*
X638782Y587371D01*
X638809Y587702D01*
X638809Y588425D01*
X638807Y588451D01*
X638809Y588478D01*
X638787Y588652D01*
X638769Y588825D01*
X638762Y588851D01*
X638758Y588877D01*
X638702Y589043D01*
X638651Y589210D01*
X638638Y589234D01*
X638630Y589259D01*
X638543Y589410D01*
X638459Y589564D01*
X638442Y589585D01*
X638429Y589608D01*
X638214Y589861D01*
X636015Y592060D01*
X636015Y601740D01*
X642860Y608585D01*
X652540Y608585D01*
X659385Y601740D01*
X659385Y592060D01*
X657186Y589861D01*
X657169Y589840D01*
X657148Y589823D01*
X657041Y589685D01*
X656931Y589550D01*
X656918Y589526D01*
X656902Y589505D01*
X656824Y589348D01*
X656742Y589194D01*
X656734Y589168D01*
X656722Y589144D01*
X656677Y588975D01*
X656627Y588808D01*
X656625Y588781D01*
X656618Y588755D01*
X656591Y588425D01*
X656591Y587702D01*
X656593Y587680D01*
X656591Y587657D01*
X656613Y587480D01*
X656631Y587301D01*
X656637Y587280D01*
X656640Y587258D01*
X656696Y587088D01*
X656749Y586916D01*
X656759Y586897D01*
X656766Y586875D01*
X656855Y586720D01*
X656941Y586562D01*
X656955Y586545D01*
X656966Y586526D01*
X657083Y586391D01*
X657198Y586253D01*
X657216Y586239D01*
X657230Y586222D01*
X657372Y586113D01*
X657512Y586001D01*
X657532Y585990D01*
X657550Y585977D01*
X657845Y585825D01*
X659578Y585107D01*
X661007Y583678D01*
X661781Y581811D01*
X661781Y573706D01*
X661783Y573680D01*
X661781Y573653D01*
X661803Y573479D01*
X661821Y573306D01*
X661828Y573280D01*
X661832Y573254D01*
X661887Y573088D01*
X661939Y572921D01*
X661952Y572897D01*
X661960Y572872D01*
X662047Y572720D01*
X662131Y572567D01*
X662148Y572546D01*
X662161Y572523D01*
X662376Y572270D01*
X666795Y567851D01*
X666925Y567744D01*
X667052Y567633D01*
X667081Y567617D01*
X667106Y567596D01*
X667255Y567517D01*
X667401Y567433D01*
X667433Y567423D01*
X667462Y567407D01*
X667623Y567359D01*
X667783Y567306D01*
X667816Y567302D01*
X667848Y567292D01*
X668016Y567277D01*
X668183Y567257D01*
X668216Y567259D01*
X668249Y567256D01*
X668417Y567274D01*
X668584Y567287D01*
X668616Y567296D01*
X668649Y567299D01*
X668810Y567350D01*
X668972Y567396D01*
X669001Y567411D01*
X669033Y567421D01*
X669180Y567502D01*
X669330Y567579D01*
X669356Y567600D01*
X669385Y567616D01*
X669514Y567725D01*
X669646Y567829D01*
X669667Y567855D01*
X669692Y567876D01*
X669797Y568008D01*
X669905Y568137D01*
X669921Y568166D01*
X669942Y568192D01*
X670018Y568342D01*
X670099Y568490D01*
X670109Y568521D01*
X670124Y568551D01*
X670170Y568713D01*
X670220Y568874D01*
X670223Y568907D01*
X670232Y568939D01*
X670245Y569107D01*
X670262Y569274D01*
X670260Y569311D01*
X670262Y569340D01*
X670251Y569426D01*
X670248Y569469D01*
X683769Y569469D01*
X683769Y562355D01*
X678476Y562355D01*
X677301Y562541D01*
X677133Y562551D01*
X676965Y562566D01*
X676932Y562563D01*
X676899Y562565D01*
X676733Y562541D01*
X676565Y562523D01*
X676533Y562513D01*
X676500Y562508D01*
X676342Y562452D01*
X676181Y562401D01*
X676152Y562385D01*
X676121Y562374D01*
X675976Y562288D01*
X675829Y562207D01*
X675804Y562185D01*
X675775Y562168D01*
X675650Y562055D01*
X675522Y561946D01*
X675501Y561920D01*
X675477Y561898D01*
X675377Y561762D01*
X675272Y561630D01*
X675257Y561601D01*
X675237Y561574D01*
X675166Y561422D01*
X675090Y561271D01*
X675081Y561239D01*
X675067Y561209D01*
X675027Y561046D01*
X674982Y560883D01*
X674980Y560850D01*
X674972Y560818D01*
X674965Y560650D01*
X674953Y560482D01*
X674957Y560449D01*
X674955Y560416D01*
X674982Y560250D01*
X675003Y560082D01*
X675014Y560051D01*
X675019Y560018D01*
X675078Y559860D01*
X675131Y559701D01*
X675148Y559672D01*
X675159Y559641D01*
X675248Y559498D01*
X675332Y559352D01*
X675356Y559323D01*
X675372Y559299D01*
X675431Y559236D01*
X675547Y559099D01*
X676266Y558380D01*
X676287Y558363D01*
X676304Y558342D01*
X676442Y558235D01*
X676578Y558125D01*
X676601Y558112D01*
X676622Y558096D01*
X676779Y558018D01*
X676933Y557936D01*
X676959Y557928D01*
X676983Y557916D01*
X677152Y557871D01*
X677319Y557821D01*
X677346Y557819D01*
X677372Y557812D01*
X677702Y557785D01*
X694728Y557785D01*
X699023Y556006D01*
X699189Y555840D01*
X699210Y555823D01*
X699227Y555802D01*
X699365Y555695D01*
X699501Y555585D01*
X699524Y555572D01*
X699545Y555556D01*
X699702Y555478D01*
X699856Y555396D01*
X699882Y555388D01*
X699906Y555376D01*
X700075Y555331D01*
X700203Y555293D01*
X703680Y553853D01*
X711034Y546499D01*
X711041Y546493D01*
X711046Y546486D01*
X711196Y546366D01*
X711345Y546244D01*
X711353Y546240D01*
X711360Y546234D01*
X711530Y546146D01*
X711701Y546055D01*
X711710Y546053D01*
X711717Y546049D01*
X711902Y545995D01*
X712087Y545940D01*
X712096Y545940D01*
X712104Y545937D01*
X712296Y545921D01*
X712488Y545904D01*
X712497Y545905D01*
X712506Y545904D01*
X712695Y545926D01*
X712888Y545947D01*
X712897Y545950D01*
X712905Y545951D01*
X713087Y546011D01*
X713272Y546069D01*
X713280Y546073D01*
X713288Y546076D01*
X713457Y546171D01*
X713624Y546264D01*
X713631Y546269D01*
X713639Y546274D01*
X713785Y546400D01*
X713931Y546524D01*
X713937Y546531D01*
X713944Y546537D01*
X714061Y546688D01*
X714181Y546840D01*
X714185Y546848D01*
X714190Y546855D01*
X714276Y547027D01*
X714363Y547199D01*
X714366Y547208D01*
X714370Y547216D01*
X714420Y547402D01*
X714471Y547587D01*
X714472Y547596D01*
X714474Y547604D01*
X714501Y547935D01*
X714501Y579825D01*
X714499Y579851D01*
X714501Y579878D01*
X714479Y580052D01*
X714461Y580225D01*
X714454Y580251D01*
X714450Y580277D01*
X714394Y580443D01*
X714343Y580610D01*
X714331Y580634D01*
X714322Y580659D01*
X714235Y580811D01*
X714151Y580964D01*
X714134Y580985D01*
X714121Y581008D01*
X713906Y581261D01*
X712943Y582224D01*
X712922Y582241D01*
X712905Y582262D01*
X712767Y582368D01*
X712632Y582479D01*
X712608Y582492D01*
X712587Y582508D01*
X712430Y582586D01*
X712276Y582668D01*
X712250Y582676D01*
X712226Y582688D01*
X712057Y582733D01*
X711890Y582783D01*
X711863Y582785D01*
X711837Y582792D01*
X711507Y582819D01*
X703489Y582819D01*
X701622Y583593D01*
X700193Y585022D01*
X699419Y586889D01*
X699419Y606911D01*
X700193Y608778D01*
X701622Y610207D01*
X703489Y610981D01*
X721511Y610981D01*
X723378Y610207D01*
X724807Y608778D01*
X725581Y606911D01*
X725581Y596293D01*
X725583Y596267D01*
X725581Y596240D01*
X725603Y596066D01*
X725621Y595893D01*
X725628Y595867D01*
X725632Y595840D01*
X725688Y595675D01*
X725739Y595508D01*
X725752Y595484D01*
X725760Y595459D01*
X725847Y595308D01*
X725931Y595154D01*
X725948Y595133D01*
X725961Y595110D01*
X726176Y594857D01*
X728540Y592492D01*
X728993Y592039D01*
X729007Y592028D01*
X729019Y592014D01*
X729162Y591901D01*
X729305Y591784D01*
X729321Y591776D01*
X729335Y591765D01*
X729498Y591682D01*
X729660Y591596D01*
X729678Y591590D01*
X729694Y591582D01*
X729871Y591533D01*
X730046Y591481D01*
X730064Y591479D01*
X730081Y591474D01*
X730265Y591461D01*
X730447Y591444D01*
X730465Y591446D01*
X730483Y591445D01*
X730665Y591468D01*
X730848Y591488D01*
X730865Y591493D01*
X730882Y591495D01*
X731057Y591554D01*
X731231Y591609D01*
X731247Y591618D01*
X731264Y591624D01*
X731423Y591715D01*
X731584Y591804D01*
X731597Y591816D01*
X731613Y591825D01*
X731866Y592039D01*
X737020Y597194D01*
X737037Y597214D01*
X737058Y597232D01*
X737164Y597369D01*
X737275Y597505D01*
X737288Y597529D01*
X737304Y597550D01*
X737382Y597707D01*
X737464Y597861D01*
X737472Y597886D01*
X737484Y597911D01*
X737529Y598080D01*
X737579Y598247D01*
X737581Y598273D01*
X737588Y598299D01*
X737615Y598630D01*
X737615Y601740D01*
X744460Y608585D01*
X754140Y608585D01*
X760795Y601929D01*
X760803Y601923D01*
X760805Y601920D01*
X760811Y601916D01*
X760821Y601905D01*
X760964Y601791D01*
X761107Y601674D01*
X761123Y601666D01*
X761136Y601655D01*
X761301Y601572D01*
X761462Y601486D01*
X761479Y601481D01*
X761495Y601473D01*
X761673Y601423D01*
X761848Y601371D01*
X761866Y601369D01*
X761883Y601365D01*
X762067Y601351D01*
X762249Y601335D01*
X762267Y601336D01*
X762285Y601335D01*
X762467Y601358D01*
X762650Y601378D01*
X762667Y601383D01*
X762684Y601386D01*
X762858Y601444D01*
X763033Y601499D01*
X763049Y601508D01*
X763066Y601514D01*
X763225Y601606D01*
X763386Y601694D01*
X763399Y601706D01*
X763415Y601715D01*
X763668Y601929D01*
X764650Y602912D01*
X764670Y602936D01*
X764694Y602957D01*
X764798Y603092D01*
X764905Y603223D01*
X764920Y603251D01*
X764939Y603276D01*
X764970Y603335D01*
X768225Y606591D01*
X770697Y607614D01*
X772426Y608331D01*
X967578Y608331D01*
X971779Y606591D01*
X1005625Y572745D01*
X1007365Y568544D01*
X1007365Y549056D01*
X1006778Y547639D01*
X1006774Y547626D01*
X1006768Y547615D01*
X1006716Y547434D01*
X1006661Y547254D01*
X1006660Y547241D01*
X1006656Y547228D01*
X1006641Y547039D01*
X1006623Y546853D01*
X1006625Y546840D01*
X1006623Y546826D01*
X1006645Y546640D01*
X1006665Y546453D01*
X1006669Y546440D01*
X1006670Y546427D01*
X1006729Y546247D01*
X1006785Y546068D01*
X1006791Y546057D01*
X1006795Y546044D01*
X1006888Y545879D01*
X1006978Y545715D01*
X1006987Y545705D01*
X1006993Y545693D01*
X1007116Y545551D01*
X1007237Y545407D01*
X1007248Y545399D01*
X1007256Y545388D01*
X1007404Y545274D01*
X1007552Y545156D01*
X1007564Y545150D01*
X1007574Y545142D01*
X1007743Y545058D01*
X1007910Y544972D01*
X1007923Y544968D01*
X1007935Y544962D01*
X1008118Y544913D01*
X1008297Y544862D01*
X1008311Y544861D01*
X1008324Y544858D01*
X1008654Y544831D01*
X1051949Y544831D01*
X1056151Y543091D01*
X1059652Y539589D01*
X1074864Y524377D01*
X1074866Y524375D01*
X1074868Y524373D01*
X1076483Y522769D01*
X1077351Y520673D01*
X1077353Y520670D01*
X1077354Y520667D01*
X1078231Y518569D01*
X1078231Y516297D01*
X1078231Y516294D01*
X1078231Y516290D01*
X1078297Y496056D01*
X1078298Y496041D01*
X1078297Y496027D01*
X1078319Y495842D01*
X1078338Y495655D01*
X1078342Y495641D01*
X1078344Y495627D01*
X1078403Y495447D01*
X1078457Y495271D01*
X1078464Y495258D01*
X1078469Y495244D01*
X1078561Y495080D01*
X1078650Y494917D01*
X1078660Y494906D01*
X1078667Y494894D01*
X1078789Y494752D01*
X1078909Y494609D01*
X1078920Y494600D01*
X1078930Y494589D01*
X1079077Y494475D01*
X1079224Y494358D01*
X1079237Y494351D01*
X1079248Y494342D01*
X1079415Y494259D01*
X1079582Y494173D01*
X1079596Y494169D01*
X1079609Y494163D01*
X1079789Y494114D01*
X1079969Y494063D01*
X1079983Y494062D01*
X1079997Y494058D01*
X1080328Y494031D01*
X1091399Y494031D01*
X1091430Y494034D01*
X1091462Y494032D01*
X1091631Y494054D01*
X1091800Y494071D01*
X1091830Y494080D01*
X1091861Y494084D01*
X1092177Y494186D01*
X1092416Y494285D01*
X1097064Y494285D01*
X1101359Y492506D01*
X1104646Y489219D01*
X1104683Y489128D01*
X1104690Y489116D01*
X1104694Y489103D01*
X1104785Y488939D01*
X1104874Y488773D01*
X1104882Y488763D01*
X1104889Y488751D01*
X1105010Y488608D01*
X1105130Y488463D01*
X1105141Y488454D01*
X1105149Y488444D01*
X1105296Y488328D01*
X1105443Y488209D01*
X1105455Y488203D01*
X1105465Y488194D01*
X1105632Y488110D01*
X1105799Y488022D01*
X1105812Y488018D01*
X1105824Y488012D01*
X1106005Y487962D01*
X1106186Y487909D01*
X1106199Y487908D01*
X1106212Y487904D01*
X1106401Y487890D01*
X1106587Y487874D01*
X1106600Y487876D01*
X1106613Y487875D01*
X1106801Y487898D01*
X1106987Y487919D01*
X1107000Y487923D01*
X1107013Y487925D01*
X1107191Y487985D01*
X1107370Y488043D01*
X1107382Y488049D01*
X1107395Y488053D01*
X1107557Y488147D01*
X1107722Y488239D01*
X1107732Y488248D01*
X1107743Y488254D01*
X1107996Y488469D01*
X1111272Y491745D01*
X1113029Y491745D01*
X1113029Y482600D01*
X1113029Y473455D01*
X1111272Y473455D01*
X1107996Y476731D01*
X1107986Y476740D01*
X1107977Y476750D01*
X1107830Y476867D01*
X1107685Y476986D01*
X1107673Y476992D01*
X1107663Y477001D01*
X1107495Y477087D01*
X1107329Y477175D01*
X1107316Y477179D01*
X1107304Y477185D01*
X1107123Y477236D01*
X1106943Y477289D01*
X1106930Y477291D01*
X1106917Y477294D01*
X1106731Y477309D01*
X1106542Y477326D01*
X1106529Y477324D01*
X1106516Y477325D01*
X1106330Y477303D01*
X1106142Y477282D01*
X1106129Y477278D01*
X1106116Y477277D01*
X1105938Y477218D01*
X1105758Y477161D01*
X1105746Y477154D01*
X1105734Y477150D01*
X1105571Y477057D01*
X1105406Y476966D01*
X1105396Y476957D01*
X1105384Y476951D01*
X1105242Y476827D01*
X1105099Y476706D01*
X1105091Y476695D01*
X1105080Y476686D01*
X1104966Y476537D01*
X1104849Y476390D01*
X1104843Y476378D01*
X1104835Y476367D01*
X1104683Y476072D01*
X1104646Y475981D01*
X1101359Y472694D01*
X1097064Y470915D01*
X1092416Y470915D01*
X1092175Y471015D01*
X1092145Y471024D01*
X1092117Y471038D01*
X1091953Y471082D01*
X1091790Y471131D01*
X1091759Y471134D01*
X1091728Y471143D01*
X1091398Y471170D01*
X1080416Y471170D01*
X1080395Y471168D01*
X1080374Y471169D01*
X1080195Y471148D01*
X1080015Y471130D01*
X1079995Y471123D01*
X1079974Y471121D01*
X1079803Y471065D01*
X1079630Y471012D01*
X1079612Y471001D01*
X1079592Y470995D01*
X1079435Y470906D01*
X1079276Y470820D01*
X1079260Y470806D01*
X1079242Y470796D01*
X1079105Y470677D01*
X1078967Y470562D01*
X1078954Y470546D01*
X1078938Y470532D01*
X1078828Y470389D01*
X1078715Y470248D01*
X1078705Y470230D01*
X1078692Y470213D01*
X1078612Y470050D01*
X1078529Y469891D01*
X1078523Y469871D01*
X1078514Y469852D01*
X1078468Y469678D01*
X1078418Y469504D01*
X1078416Y469483D01*
X1078411Y469463D01*
X1078385Y469132D01*
X1078498Y434516D01*
X1078581Y409051D01*
X1078584Y409023D01*
X1078582Y408994D01*
X1078589Y408935D01*
X1078589Y406378D01*
X1078590Y406375D01*
X1078589Y406371D01*
X1078597Y404103D01*
X1077728Y402006D01*
X1077728Y402004D01*
X1077726Y402000D01*
X1076863Y399897D01*
X1075261Y398295D01*
X1075259Y398293D01*
X1075256Y398290D01*
X1073443Y396465D01*
X1073364Y396399D01*
X1069129Y392164D01*
X1069112Y392143D01*
X1069092Y392126D01*
X1068985Y391988D01*
X1068874Y391852D01*
X1068862Y391829D01*
X1068845Y391807D01*
X1068767Y391650D01*
X1068685Y391496D01*
X1068678Y391471D01*
X1068666Y391447D01*
X1068620Y391277D01*
X1068571Y391111D01*
X1068568Y391084D01*
X1068561Y391058D01*
X1068534Y390727D01*
X1068534Y381955D01*
X1066398Y376797D01*
X1062450Y372849D01*
X1057292Y370712D01*
X1051708Y370712D01*
G37*
%LPD*%
%LPC*%
G36*
X757665Y314616D02*
X757665Y314616D01*
X755518Y315505D01*
X751163Y319861D01*
X750273Y322008D01*
X750273Y337891D01*
X750593Y338663D01*
X750601Y338689D01*
X750613Y338712D01*
X750659Y338881D01*
X750710Y339048D01*
X750712Y339075D01*
X750719Y339101D01*
X750731Y339276D01*
X750748Y339449D01*
X750745Y339476D01*
X750747Y339502D01*
X750724Y339677D01*
X750706Y339850D01*
X750698Y339875D01*
X750695Y339902D01*
X750593Y340218D01*
X750273Y340990D01*
X750273Y346026D01*
X751163Y348173D01*
X752806Y349817D01*
X754954Y350706D01*
X757278Y350706D01*
X759426Y349817D01*
X761069Y348173D01*
X761959Y346026D01*
X761959Y342078D01*
X761960Y342069D01*
X761959Y342060D01*
X761980Y341868D01*
X761999Y341678D01*
X762001Y341669D01*
X762002Y341660D01*
X762060Y341478D01*
X762117Y341293D01*
X762121Y341285D01*
X762124Y341276D01*
X762217Y341108D01*
X762309Y340939D01*
X762314Y340932D01*
X762319Y340924D01*
X762444Y340776D01*
X762566Y340629D01*
X762573Y340624D01*
X762579Y340617D01*
X762731Y340497D01*
X762880Y340377D01*
X762888Y340373D01*
X762895Y340367D01*
X763066Y340280D01*
X763237Y340191D01*
X763246Y340189D01*
X763254Y340185D01*
X763440Y340133D01*
X763624Y340080D01*
X763633Y340079D01*
X763642Y340077D01*
X763834Y340063D01*
X764026Y340047D01*
X764034Y340048D01*
X764043Y340048D01*
X764236Y340072D01*
X764425Y340094D01*
X764434Y340097D01*
X764443Y340098D01*
X764626Y340159D01*
X764808Y340219D01*
X764816Y340223D01*
X764824Y340226D01*
X764990Y340322D01*
X765159Y340417D01*
X765166Y340423D01*
X765173Y340427D01*
X765426Y340642D01*
X766466Y341682D01*
X768614Y342571D01*
X776361Y342571D01*
X777659Y342034D01*
X778540Y341669D01*
X778566Y341661D01*
X778590Y341649D01*
X778758Y341603D01*
X778926Y341552D01*
X778952Y341550D01*
X778978Y341543D01*
X779153Y341531D01*
X779326Y341514D01*
X779353Y341517D01*
X779380Y341515D01*
X779553Y341538D01*
X779727Y341556D01*
X779752Y341564D01*
X779779Y341567D01*
X780095Y341669D01*
X782274Y342571D01*
X795445Y342571D01*
X796259Y342234D01*
X796285Y342226D01*
X796309Y342214D01*
X796477Y342168D01*
X796645Y342117D01*
X796671Y342115D01*
X796697Y342108D01*
X796872Y342096D01*
X797045Y342079D01*
X797072Y342082D01*
X797099Y342080D01*
X797273Y342103D01*
X797446Y342121D01*
X797471Y342129D01*
X797498Y342132D01*
X797814Y342234D01*
X798628Y342571D01*
X803664Y342571D01*
X804436Y342252D01*
X804462Y342244D01*
X804486Y342232D01*
X804655Y342185D01*
X804822Y342135D01*
X804848Y342133D01*
X804874Y342125D01*
X805049Y342113D01*
X805223Y342097D01*
X805249Y342100D01*
X805276Y342098D01*
X805449Y342120D01*
X805623Y342139D01*
X805649Y342147D01*
X805675Y342150D01*
X805991Y342251D01*
X806634Y342518D01*
X806658Y342530D01*
X806683Y342539D01*
X806834Y342625D01*
X806989Y342708D01*
X807009Y342725D01*
X807033Y342738D01*
X807164Y342853D01*
X807299Y342964D01*
X807316Y342985D01*
X807336Y343003D01*
X807443Y343141D01*
X807553Y343277D01*
X807565Y343301D01*
X807582Y343322D01*
X807733Y343617D01*
X808497Y345462D01*
X810141Y347105D01*
X812288Y347995D01*
X814613Y347995D01*
X816760Y347105D01*
X818404Y345462D01*
X819081Y343825D01*
X819092Y343806D01*
X819099Y343784D01*
X819187Y343628D01*
X819272Y343470D01*
X819286Y343453D01*
X819297Y343434D01*
X819414Y343298D01*
X819528Y343160D01*
X819545Y343146D01*
X819560Y343129D01*
X819701Y343019D01*
X819841Y342906D01*
X819860Y342896D01*
X819878Y342882D01*
X820039Y342802D01*
X820197Y342719D01*
X820218Y342713D01*
X820238Y342703D01*
X820412Y342656D01*
X820584Y342606D01*
X820606Y342604D01*
X820627Y342598D01*
X820958Y342571D01*
X822748Y342571D01*
X824045Y342034D01*
X824046Y342034D01*
X824895Y341682D01*
X825623Y340954D01*
X825637Y340942D01*
X825649Y340929D01*
X825793Y340815D01*
X825935Y340699D01*
X825950Y340690D01*
X825964Y340679D01*
X826129Y340596D01*
X826290Y340510D01*
X826307Y340505D01*
X826323Y340497D01*
X826500Y340447D01*
X826676Y340395D01*
X826694Y340394D01*
X826711Y340389D01*
X826894Y340375D01*
X827077Y340359D01*
X827095Y340361D01*
X827113Y340359D01*
X827294Y340382D01*
X827478Y340402D01*
X827495Y340408D01*
X827512Y340410D01*
X827685Y340468D01*
X827861Y340524D01*
X827877Y340532D01*
X827894Y340538D01*
X828054Y340630D01*
X828214Y340719D01*
X828227Y340730D01*
X828243Y340739D01*
X828496Y340954D01*
X829224Y341682D01*
X831371Y342571D01*
X841831Y342571D01*
X841950Y342522D01*
X841972Y342515D01*
X841992Y342505D01*
X842164Y342457D01*
X842336Y342405D01*
X842358Y342403D01*
X842380Y342397D01*
X842559Y342384D01*
X842737Y342367D01*
X842759Y342369D01*
X842781Y342368D01*
X842960Y342390D01*
X843137Y342409D01*
X843158Y342415D01*
X843181Y342418D01*
X843350Y342475D01*
X843521Y342529D01*
X843541Y342539D01*
X843562Y342546D01*
X843718Y342636D01*
X843875Y342722D01*
X843892Y342736D01*
X843911Y342747D01*
X844164Y342962D01*
X848307Y347105D01*
X850455Y347995D01*
X852779Y347995D01*
X854926Y347105D01*
X861993Y340038D01*
X862883Y337891D01*
X862883Y324720D01*
X861993Y322572D01*
X860350Y320929D01*
X858202Y320039D01*
X855878Y320039D01*
X853730Y320929D01*
X853053Y321606D01*
X853039Y321617D01*
X853028Y321631D01*
X852884Y321745D01*
X852742Y321861D01*
X852726Y321870D01*
X852712Y321881D01*
X852548Y321964D01*
X852386Y322050D01*
X852369Y322055D01*
X852353Y322063D01*
X852176Y322112D01*
X852000Y322165D01*
X851982Y322166D01*
X851965Y322171D01*
X851782Y322184D01*
X851599Y322201D01*
X851581Y322199D01*
X851563Y322200D01*
X851382Y322177D01*
X851199Y322158D01*
X851182Y322152D01*
X851164Y322150D01*
X850990Y322092D01*
X850815Y322036D01*
X850799Y322027D01*
X850782Y322022D01*
X850623Y321930D01*
X850463Y321841D01*
X850449Y321830D01*
X850433Y321821D01*
X850180Y321606D01*
X849503Y320929D01*
X847356Y320039D01*
X845031Y320039D01*
X844208Y320380D01*
X844183Y320388D01*
X844159Y320400D01*
X843990Y320446D01*
X843823Y320497D01*
X843796Y320499D01*
X843770Y320506D01*
X843596Y320518D01*
X843422Y320535D01*
X843395Y320532D01*
X843369Y320534D01*
X843196Y320511D01*
X843022Y320493D01*
X842996Y320485D01*
X842970Y320482D01*
X842654Y320380D01*
X841831Y320039D01*
X839506Y320039D01*
X837359Y320929D01*
X836682Y321606D01*
X836668Y321617D01*
X836656Y321631D01*
X836512Y321745D01*
X836370Y321861D01*
X836354Y321870D01*
X836340Y321881D01*
X836177Y321964D01*
X836014Y322050D01*
X835997Y322055D01*
X835981Y322063D01*
X835805Y322112D01*
X835628Y322165D01*
X835611Y322166D01*
X835593Y322171D01*
X835411Y322184D01*
X835227Y322201D01*
X835210Y322199D01*
X835192Y322200D01*
X835010Y322177D01*
X834827Y322158D01*
X834810Y322152D01*
X834792Y322150D01*
X834619Y322092D01*
X834443Y322036D01*
X834428Y322027D01*
X834411Y322022D01*
X834252Y321930D01*
X834091Y321841D01*
X834077Y321830D01*
X834062Y321821D01*
X833809Y321606D01*
X833132Y320929D01*
X830984Y320039D01*
X828660Y320039D01*
X826481Y320942D01*
X826455Y320949D01*
X826431Y320962D01*
X826263Y321008D01*
X826096Y321058D01*
X826069Y321061D01*
X826043Y321068D01*
X825868Y321080D01*
X825695Y321096D01*
X825668Y321094D01*
X825641Y321095D01*
X825468Y321073D01*
X825294Y321055D01*
X825269Y321047D01*
X825242Y321043D01*
X824926Y320942D01*
X822748Y320039D01*
X812288Y320039D01*
X811465Y320380D01*
X811440Y320388D01*
X811416Y320400D01*
X811247Y320446D01*
X811080Y320497D01*
X811053Y320499D01*
X811027Y320506D01*
X810853Y320518D01*
X810679Y320535D01*
X810652Y320532D01*
X810626Y320534D01*
X810453Y320511D01*
X810279Y320493D01*
X810253Y320485D01*
X810226Y320482D01*
X809911Y320380D01*
X809088Y320039D01*
X806763Y320039D01*
X804616Y320929D01*
X802971Y322574D01*
X802881Y322738D01*
X802790Y322907D01*
X802785Y322914D01*
X802780Y322922D01*
X802656Y323070D01*
X802534Y323217D01*
X802527Y323223D01*
X802521Y323230D01*
X802370Y323350D01*
X802221Y323471D01*
X802213Y323475D01*
X802206Y323481D01*
X802035Y323569D01*
X801865Y323658D01*
X801856Y323661D01*
X801848Y323665D01*
X801663Y323717D01*
X801478Y323771D01*
X801470Y323772D01*
X801461Y323775D01*
X801268Y323789D01*
X801077Y323806D01*
X801068Y323805D01*
X801059Y323806D01*
X800868Y323782D01*
X800677Y323761D01*
X800669Y323758D01*
X800660Y323757D01*
X800478Y323697D01*
X800294Y323638D01*
X800286Y323633D01*
X800278Y323630D01*
X800112Y323536D01*
X799942Y323441D01*
X799936Y323435D01*
X799928Y323431D01*
X799783Y323305D01*
X799637Y323179D01*
X799631Y323172D01*
X799624Y323166D01*
X799506Y323013D01*
X799388Y322862D01*
X799384Y322854D01*
X799379Y322847D01*
X799240Y322576D01*
X797592Y320929D01*
X795445Y320039D01*
X782274Y320039D01*
X780095Y320942D01*
X780069Y320949D01*
X780045Y320962D01*
X779877Y321008D01*
X779709Y321058D01*
X779683Y321061D01*
X779657Y321068D01*
X779482Y321080D01*
X779309Y321096D01*
X779282Y321094D01*
X779255Y321095D01*
X779082Y321073D01*
X778908Y321055D01*
X778883Y321047D01*
X778856Y321043D01*
X778540Y320942D01*
X776361Y320039D01*
X769047Y320039D01*
X769025Y320037D01*
X769002Y320039D01*
X768825Y320017D01*
X768646Y319999D01*
X768625Y319993D01*
X768603Y319990D01*
X768433Y319934D01*
X768261Y319881D01*
X768242Y319871D01*
X768221Y319864D01*
X768065Y319775D01*
X767907Y319689D01*
X767890Y319675D01*
X767871Y319664D01*
X767735Y319546D01*
X767598Y319432D01*
X767584Y319414D01*
X767567Y319400D01*
X767458Y319258D01*
X767346Y319118D01*
X767335Y319098D01*
X767322Y319080D01*
X767170Y318785D01*
X766493Y317149D01*
X764849Y315505D01*
X762702Y314616D01*
X757665Y314616D01*
G37*
%LPD*%
%LPC*%
G36*
X683976Y314616D02*
X683976Y314616D01*
X681829Y315505D01*
X680185Y317149D01*
X679508Y318785D01*
X679497Y318805D01*
X679490Y318826D01*
X679402Y318982D01*
X679318Y319140D01*
X679303Y319157D01*
X679292Y319177D01*
X679175Y319312D01*
X679061Y319451D01*
X679044Y319465D01*
X679029Y319482D01*
X678888Y319591D01*
X678748Y319704D01*
X678729Y319715D01*
X678711Y319728D01*
X678550Y319808D01*
X678392Y319891D01*
X678371Y319898D01*
X678351Y319908D01*
X678177Y319954D01*
X678006Y320004D01*
X677983Y320006D01*
X677962Y320012D01*
X677631Y320039D01*
X675842Y320039D01*
X674982Y320395D01*
X673663Y320942D01*
X673637Y320949D01*
X673613Y320962D01*
X673444Y321008D01*
X673277Y321058D01*
X673251Y321061D01*
X673225Y321068D01*
X673050Y321080D01*
X672877Y321096D01*
X672850Y321094D01*
X672823Y321095D01*
X672649Y321073D01*
X672476Y321055D01*
X672451Y321047D01*
X672424Y321043D01*
X672108Y320942D01*
X669929Y320039D01*
X662182Y320039D01*
X661376Y320373D01*
X661350Y320381D01*
X661326Y320393D01*
X661158Y320439D01*
X660990Y320490D01*
X660963Y320492D01*
X660938Y320499D01*
X660763Y320511D01*
X660589Y320528D01*
X660563Y320525D01*
X660536Y320527D01*
X660362Y320504D01*
X660189Y320486D01*
X660163Y320478D01*
X660137Y320475D01*
X659821Y320373D01*
X659015Y320039D01*
X651267Y320039D01*
X649120Y320929D01*
X647476Y322572D01*
X646587Y324720D01*
X646587Y327044D01*
X647476Y329192D01*
X648703Y330419D01*
X648720Y330440D01*
X648741Y330457D01*
X648848Y330595D01*
X648959Y330730D01*
X648971Y330754D01*
X648987Y330775D01*
X649065Y330932D01*
X649147Y331086D01*
X649155Y331112D01*
X649167Y331136D01*
X649212Y331305D01*
X649262Y331472D01*
X649264Y331499D01*
X649271Y331524D01*
X649298Y331855D01*
X649298Y343314D01*
X650188Y345462D01*
X651831Y347105D01*
X653979Y347995D01*
X659015Y347995D01*
X659111Y347955D01*
X659132Y347948D01*
X659152Y347938D01*
X659325Y347890D01*
X659496Y347838D01*
X659518Y347836D01*
X659540Y347830D01*
X659719Y347817D01*
X659897Y347800D01*
X659919Y347803D01*
X659941Y347801D01*
X660120Y347824D01*
X660297Y347842D01*
X660319Y347849D01*
X660341Y347851D01*
X660511Y347909D01*
X660682Y347962D01*
X660701Y347972D01*
X660722Y347980D01*
X660877Y348069D01*
X661035Y348155D01*
X661052Y348169D01*
X661071Y348181D01*
X661324Y348395D01*
X662746Y349817D01*
X664893Y350706D01*
X667218Y350706D01*
X669365Y349817D01*
X671009Y348173D01*
X671898Y346026D01*
X671898Y343978D01*
X671900Y343965D01*
X671898Y343951D01*
X671919Y343765D01*
X671938Y343577D01*
X671942Y343564D01*
X671944Y343551D01*
X672001Y343372D01*
X672056Y343192D01*
X672063Y343181D01*
X672067Y343168D01*
X672159Y343003D01*
X672248Y342838D01*
X672257Y342828D01*
X672263Y342816D01*
X672386Y342673D01*
X672506Y342529D01*
X672516Y342521D01*
X672525Y342511D01*
X672674Y342394D01*
X672820Y342277D01*
X672831Y342271D01*
X672842Y342262D01*
X673010Y342178D01*
X673177Y342091D01*
X673190Y342088D01*
X673202Y342082D01*
X673383Y342032D01*
X673564Y341980D01*
X673577Y341979D01*
X673590Y341975D01*
X673778Y341962D01*
X673965Y341947D01*
X673978Y341949D01*
X673992Y341948D01*
X674179Y341972D01*
X674365Y341994D01*
X674378Y341998D01*
X674391Y342000D01*
X674707Y342101D01*
X675842Y342571D01*
X686301Y342571D01*
X688480Y341669D01*
X688505Y341661D01*
X688529Y341649D01*
X688698Y341603D01*
X688865Y341552D01*
X688892Y341550D01*
X688918Y341543D01*
X689092Y341531D01*
X689266Y341514D01*
X689292Y341517D01*
X689319Y341515D01*
X689493Y341538D01*
X689666Y341556D01*
X689692Y341564D01*
X689718Y341567D01*
X690034Y341669D01*
X692213Y342571D01*
X699961Y342571D01*
X701259Y342034D01*
X702140Y341669D01*
X702165Y341661D01*
X702189Y341649D01*
X702358Y341603D01*
X702525Y341552D01*
X702552Y341550D01*
X702577Y341543D01*
X702752Y341531D01*
X702926Y341514D01*
X702952Y341517D01*
X702979Y341515D01*
X703153Y341538D01*
X703326Y341556D01*
X703352Y341564D01*
X703378Y341567D01*
X703694Y341669D01*
X705873Y342571D01*
X717434Y342571D01*
X717460Y342574D01*
X717487Y342572D01*
X717661Y342594D01*
X717834Y342611D01*
X717860Y342619D01*
X717886Y342622D01*
X718052Y342678D01*
X718219Y342729D01*
X718243Y342742D01*
X718268Y342751D01*
X718419Y342838D01*
X718573Y342921D01*
X718594Y342938D01*
X718617Y342952D01*
X718870Y343166D01*
X722809Y347105D01*
X724097Y347639D01*
X724956Y347995D01*
X732704Y347995D01*
X734851Y347105D01*
X737277Y344679D01*
X739207Y342750D01*
X740096Y340602D01*
X740096Y327431D01*
X739207Y325284D01*
X734851Y320929D01*
X732704Y320039D01*
X724956Y320039D01*
X724165Y320367D01*
X722777Y320942D01*
X722752Y320949D01*
X722728Y320962D01*
X722559Y321008D01*
X722392Y321058D01*
X722365Y321061D01*
X722340Y321068D01*
X722165Y321080D01*
X721991Y321096D01*
X721965Y321094D01*
X721938Y321095D01*
X721764Y321073D01*
X721591Y321055D01*
X721565Y321047D01*
X721539Y321043D01*
X721223Y320942D01*
X719044Y320039D01*
X705873Y320039D01*
X703694Y320942D01*
X703669Y320949D01*
X703645Y320962D01*
X703476Y321008D01*
X703309Y321058D01*
X703282Y321061D01*
X703256Y321068D01*
X703082Y321080D01*
X702908Y321096D01*
X702882Y321094D01*
X702855Y321095D01*
X702681Y321073D01*
X702508Y321055D01*
X702482Y321047D01*
X702455Y321043D01*
X702140Y320942D01*
X699961Y320039D01*
X692646Y320039D01*
X692624Y320037D01*
X692602Y320039D01*
X692424Y320017D01*
X692246Y319999D01*
X692224Y319993D01*
X692202Y319990D01*
X692033Y319934D01*
X691861Y319881D01*
X691841Y319871D01*
X691820Y319864D01*
X691665Y319775D01*
X691507Y319689D01*
X691490Y319675D01*
X691470Y319664D01*
X691335Y319546D01*
X691197Y319432D01*
X691184Y319414D01*
X691167Y319400D01*
X691057Y319258D01*
X690945Y319118D01*
X690935Y319098D01*
X690921Y319080D01*
X690770Y318785D01*
X690092Y317149D01*
X688448Y315505D01*
X686301Y314616D01*
X683976Y314616D01*
G37*
%LPD*%
%LPC*%
G36*
X1011160Y356615D02*
X1011160Y356615D01*
X1008961Y358814D01*
X1008940Y358831D01*
X1008923Y358852D01*
X1008785Y358959D01*
X1008649Y359069D01*
X1008626Y359082D01*
X1008605Y359098D01*
X1008448Y359176D01*
X1008294Y359258D01*
X1008268Y359266D01*
X1008244Y359278D01*
X1008075Y359323D01*
X1007908Y359373D01*
X1007881Y359375D01*
X1007855Y359382D01*
X1007525Y359409D01*
X975732Y359409D01*
X974125Y360075D01*
X974100Y360082D01*
X974076Y360094D01*
X973907Y360141D01*
X973740Y360191D01*
X973713Y360194D01*
X973687Y360201D01*
X973512Y360213D01*
X973339Y360229D01*
X973313Y360226D01*
X973286Y360228D01*
X973112Y360206D01*
X972939Y360188D01*
X972913Y360180D01*
X972886Y360176D01*
X972571Y360075D01*
X967592Y358012D01*
X962008Y358012D01*
X956850Y360149D01*
X952902Y364097D01*
X950766Y369255D01*
X950766Y392745D01*
X952902Y397903D01*
X956850Y401851D01*
X962008Y403988D01*
X967592Y403988D01*
X972750Y401851D01*
X976698Y397903D01*
X978834Y392745D01*
X978834Y380381D01*
X978837Y380354D01*
X978835Y380327D01*
X978857Y380153D01*
X978874Y379980D01*
X978882Y379954D01*
X978885Y379928D01*
X978941Y379762D01*
X978992Y379595D01*
X979005Y379571D01*
X979014Y379546D01*
X979101Y379394D01*
X979184Y379241D01*
X979201Y379221D01*
X979214Y379197D01*
X979429Y378944D01*
X980588Y377786D01*
X980608Y377769D01*
X980626Y377748D01*
X980764Y377641D01*
X980899Y377531D01*
X980923Y377518D01*
X980944Y377502D01*
X981101Y377424D01*
X981255Y377342D01*
X981280Y377334D01*
X981305Y377322D01*
X981474Y377277D01*
X981641Y377227D01*
X981667Y377225D01*
X981693Y377218D01*
X982024Y377191D01*
X1007525Y377191D01*
X1007551Y377193D01*
X1007578Y377191D01*
X1007752Y377213D01*
X1007925Y377231D01*
X1007951Y377238D01*
X1007977Y377242D01*
X1008143Y377297D01*
X1008310Y377349D01*
X1008334Y377362D01*
X1008359Y377370D01*
X1008511Y377457D01*
X1008664Y377541D01*
X1008685Y377558D01*
X1008708Y377571D01*
X1008961Y377786D01*
X1011160Y379985D01*
X1020840Y379985D01*
X1027685Y373140D01*
X1027685Y363460D01*
X1020840Y356615D01*
X1011160Y356615D01*
G37*
%LPD*%
%LPC*%
G36*
X917784Y383984D02*
X917784Y383984D01*
X917784Y401070D01*
X919212Y400606D01*
X920824Y399784D01*
X922288Y398721D01*
X923567Y397441D01*
X924631Y395978D01*
X925452Y394366D01*
X926011Y392645D01*
X926294Y390858D01*
X926294Y383984D01*
X917784Y383984D01*
G37*
%LPD*%
%LPC*%
G36*
X1107484Y396684D02*
X1107484Y396684D01*
X1107484Y413770D01*
X1108912Y413306D01*
X1110524Y412484D01*
X1111988Y411421D01*
X1113267Y410141D01*
X1114331Y408678D01*
X1115152Y407066D01*
X1115711Y405345D01*
X1115994Y403558D01*
X1115994Y396684D01*
X1107484Y396684D01*
G37*
%LPD*%
%LPC*%
G36*
X917784Y378016D02*
X917784Y378016D01*
X926294Y378016D01*
X926294Y371142D01*
X926011Y369355D01*
X925452Y367634D01*
X924631Y366022D01*
X923567Y364559D01*
X922288Y363279D01*
X920824Y362216D01*
X919212Y361394D01*
X917784Y360930D01*
X917784Y378016D01*
G37*
%LPD*%
%LPC*%
G36*
X1107484Y390716D02*
X1107484Y390716D01*
X1115994Y390716D01*
X1115994Y383842D01*
X1115711Y382055D01*
X1115152Y380334D01*
X1114331Y378722D01*
X1113267Y377259D01*
X1111988Y375979D01*
X1110524Y374916D01*
X1108912Y374094D01*
X1107484Y373630D01*
X1107484Y390716D01*
G37*
%LPD*%
%LPC*%
G36*
X903306Y383984D02*
X903306Y383984D01*
X903306Y390858D01*
X903589Y392645D01*
X904148Y394366D01*
X904969Y395978D01*
X906033Y397441D01*
X907312Y398721D01*
X908776Y399784D01*
X910388Y400606D01*
X911816Y401070D01*
X911816Y383984D01*
X903306Y383984D01*
G37*
%LPD*%
%LPC*%
G36*
X1093006Y396684D02*
X1093006Y396684D01*
X1093006Y403558D01*
X1093289Y405345D01*
X1093848Y407066D01*
X1094669Y408678D01*
X1095733Y410141D01*
X1097012Y411421D01*
X1098476Y412484D01*
X1100088Y413306D01*
X1101516Y413770D01*
X1101516Y396684D01*
X1093006Y396684D01*
G37*
%LPD*%
%LPC*%
G36*
X1100088Y374094D02*
X1100088Y374094D01*
X1098476Y374916D01*
X1097012Y375979D01*
X1095733Y377259D01*
X1094669Y378722D01*
X1093848Y380334D01*
X1093289Y382055D01*
X1093006Y383842D01*
X1093006Y390716D01*
X1101516Y390716D01*
X1101516Y373630D01*
X1100088Y374094D01*
G37*
%LPD*%
%LPC*%
G36*
X910388Y361394D02*
X910388Y361394D01*
X908776Y362216D01*
X907312Y363279D01*
X906033Y364559D01*
X904969Y366022D01*
X904148Y367634D01*
X903589Y369355D01*
X903306Y371142D01*
X903306Y378016D01*
X911816Y378016D01*
X911816Y360930D01*
X910388Y361394D01*
G37*
%LPD*%
%LPC*%
G36*
X687831Y573531D02*
X687831Y573531D01*
X687831Y580645D01*
X693124Y580645D01*
X694545Y580420D01*
X695914Y579975D01*
X697197Y579321D01*
X698361Y578475D01*
X699379Y577457D01*
X700225Y576293D01*
X700879Y575010D01*
X701324Y573641D01*
X701341Y573531D01*
X687831Y573531D01*
G37*
%LPD*%
%LPC*%
G36*
X975059Y459231D02*
X975059Y459231D01*
X975076Y459341D01*
X975521Y460710D01*
X976175Y461993D01*
X977021Y463157D01*
X978039Y464175D01*
X979203Y465021D01*
X980486Y465675D01*
X981855Y466120D01*
X983276Y466345D01*
X988569Y466345D01*
X988569Y459231D01*
X975059Y459231D01*
G37*
%LPD*%
%LPC*%
G36*
X670259Y573531D02*
X670259Y573531D01*
X670276Y573641D01*
X670721Y575010D01*
X671375Y576293D01*
X672221Y577457D01*
X673239Y578475D01*
X674403Y579321D01*
X675686Y579975D01*
X677055Y580420D01*
X678476Y580645D01*
X683769Y580645D01*
X683769Y573531D01*
X670259Y573531D01*
G37*
%LPD*%
%LPC*%
G36*
X992631Y448055D02*
X992631Y448055D01*
X992631Y455169D01*
X1006141Y455169D01*
X1006124Y455059D01*
X1005679Y453690D01*
X1005025Y452407D01*
X1004179Y451243D01*
X1003161Y450225D01*
X1001997Y449379D01*
X1000714Y448725D01*
X999345Y448280D01*
X997924Y448055D01*
X992631Y448055D01*
G37*
%LPD*%
%LPC*%
G36*
X687831Y562355D02*
X687831Y562355D01*
X687831Y569469D01*
X701341Y569469D01*
X701324Y569359D01*
X700879Y567990D01*
X700225Y566707D01*
X699379Y565543D01*
X698361Y564525D01*
X697197Y563679D01*
X695914Y563025D01*
X694545Y562580D01*
X693124Y562355D01*
X687831Y562355D01*
G37*
%LPD*%
%LPC*%
G36*
X983276Y448055D02*
X983276Y448055D01*
X981855Y448280D01*
X980486Y448725D01*
X979203Y449379D01*
X978039Y450225D01*
X977021Y451243D01*
X976175Y452407D01*
X975521Y453690D01*
X975076Y455059D01*
X975059Y455169D01*
X988569Y455169D01*
X988569Y448055D01*
X983276Y448055D01*
G37*
%LPD*%
%LPC*%
G36*
X688499Y600899D02*
X688499Y600899D01*
X688499Y608441D01*
X692835Y608441D01*
X693481Y608268D01*
X694060Y607933D01*
X694533Y607460D01*
X694868Y606881D01*
X695041Y606235D01*
X695041Y600899D01*
X688499Y600899D01*
G37*
%LPD*%
%LPC*%
G36*
X904399Y423099D02*
X904399Y423099D01*
X904399Y430641D01*
X908735Y430641D01*
X909381Y430468D01*
X909960Y430133D01*
X910433Y429660D01*
X910768Y429081D01*
X910941Y428435D01*
X910941Y423099D01*
X904399Y423099D01*
G37*
%LPD*%
%LPC*%
G36*
X995899Y435799D02*
X995899Y435799D01*
X995899Y443341D01*
X1000235Y443341D01*
X1000881Y443168D01*
X1001460Y442833D01*
X1001933Y442360D01*
X1002268Y441781D01*
X1002441Y441135D01*
X1002441Y435799D01*
X995899Y435799D01*
G37*
%LPD*%
%LPC*%
G36*
X636159Y548799D02*
X636159Y548799D01*
X636159Y553135D01*
X636332Y553781D01*
X636667Y554360D01*
X637140Y554833D01*
X637719Y555168D01*
X638365Y555341D01*
X643701Y555341D01*
X643701Y548799D01*
X636159Y548799D01*
G37*
%LPD*%
%LPC*%
G36*
X995899Y420259D02*
X995899Y420259D01*
X995899Y427801D01*
X1002441Y427801D01*
X1002441Y422465D01*
X1002268Y421819D01*
X1001933Y421240D01*
X1001460Y420767D01*
X1000881Y420432D01*
X1000235Y420259D01*
X995899Y420259D01*
G37*
%LPD*%
%LPC*%
G36*
X904399Y407559D02*
X904399Y407559D01*
X904399Y415101D01*
X910941Y415101D01*
X910941Y409765D01*
X910768Y409119D01*
X910433Y408540D01*
X909960Y408067D01*
X909381Y407732D01*
X908735Y407559D01*
X904399Y407559D01*
G37*
%LPD*%
%LPC*%
G36*
X688499Y585359D02*
X688499Y585359D01*
X688499Y592901D01*
X695041Y592901D01*
X695041Y587565D01*
X694868Y586919D01*
X694533Y586340D01*
X694060Y585867D01*
X693481Y585532D01*
X692835Y585359D01*
X688499Y585359D01*
G37*
%LPD*%
%LPC*%
G36*
X981359Y435799D02*
X981359Y435799D01*
X981359Y441135D01*
X981532Y441781D01*
X981867Y442360D01*
X982340Y442833D01*
X982919Y443168D01*
X983565Y443341D01*
X987901Y443341D01*
X987901Y435799D01*
X981359Y435799D01*
G37*
%LPD*%
%LPC*%
G36*
X673959Y600899D02*
X673959Y600899D01*
X673959Y606235D01*
X674132Y606881D01*
X674467Y607460D01*
X674940Y607933D01*
X675519Y608268D01*
X676165Y608441D01*
X680501Y608441D01*
X680501Y600899D01*
X673959Y600899D01*
G37*
%LPD*%
%LPC*%
G36*
X983565Y420259D02*
X983565Y420259D01*
X982919Y420432D01*
X982340Y420767D01*
X981867Y421240D01*
X981532Y421819D01*
X981359Y422465D01*
X981359Y427801D01*
X987901Y427801D01*
X987901Y420259D01*
X983565Y420259D01*
G37*
%LPD*%
%LPC*%
G36*
X892065Y407559D02*
X892065Y407559D01*
X891419Y407732D01*
X890840Y408067D01*
X890367Y408540D01*
X890032Y409119D01*
X889859Y409765D01*
X889859Y415101D01*
X896401Y415101D01*
X896401Y407559D01*
X892065Y407559D01*
G37*
%LPD*%
%LPC*%
G36*
X676165Y585359D02*
X676165Y585359D01*
X675519Y585532D01*
X674940Y585867D01*
X674467Y586340D01*
X674132Y586919D01*
X673959Y587565D01*
X673959Y592901D01*
X680501Y592901D01*
X680501Y585359D01*
X676165Y585359D01*
G37*
%LPD*%
%LPC*%
G36*
X638365Y534259D02*
X638365Y534259D01*
X637719Y534432D01*
X637140Y534767D01*
X636667Y535240D01*
X636332Y535819D01*
X636159Y536465D01*
X636159Y540801D01*
X643701Y540801D01*
X643701Y534259D01*
X638365Y534259D01*
G37*
%LPD*%
%LPC*%
G36*
X1117091Y484631D02*
X1117091Y484631D01*
X1117091Y491745D01*
X1118848Y491745D01*
X1124205Y486388D01*
X1124205Y484631D01*
X1117091Y484631D01*
G37*
%LPD*%
%LPC*%
G36*
X1117091Y473455D02*
X1117091Y473455D01*
X1117091Y480569D01*
X1124205Y480569D01*
X1124205Y478812D01*
X1118848Y473455D01*
X1117091Y473455D01*
G37*
%LPD*%
D10*
X857040Y325882D02*
X857040Y336729D01*
X851617Y342152D01*
X846194Y336729D01*
X846194Y325882D01*
X846194Y334017D02*
X857040Y334017D01*
X840669Y336729D02*
X840669Y325882D01*
X840669Y336729D02*
X832534Y336729D01*
X829822Y334017D01*
X829822Y325882D01*
X813450Y325882D02*
X813450Y342152D01*
X813450Y325882D02*
X821585Y325882D01*
X824297Y328594D01*
X824297Y334017D01*
X821585Y336729D01*
X813450Y336729D01*
X807925Y336729D02*
X807925Y325882D01*
X807925Y331305D02*
X802502Y336729D01*
X799790Y336729D01*
X794282Y336729D02*
X783436Y336729D01*
X794282Y325882D01*
X783436Y325882D01*
X775199Y325882D02*
X769776Y325882D01*
X775199Y325882D02*
X777911Y328594D01*
X777911Y334017D01*
X775199Y336729D01*
X769776Y336729D01*
X767064Y334017D01*
X767064Y331305D01*
X777911Y331305D01*
X761539Y320459D02*
X758828Y320459D01*
X756116Y323170D01*
X756116Y336729D01*
X756116Y342152D02*
X756116Y344864D01*
X726118Y342152D02*
X723407Y339440D01*
X726118Y342152D02*
X731542Y342152D01*
X734253Y339440D01*
X734253Y328594D01*
X731542Y325882D01*
X726118Y325882D01*
X723407Y328594D01*
X717882Y336729D02*
X707035Y336729D01*
X717882Y325882D01*
X707035Y325882D01*
X698799Y325882D02*
X693375Y325882D01*
X698799Y325882D02*
X701510Y328594D01*
X701510Y334017D01*
X698799Y336729D01*
X693375Y336729D01*
X690664Y334017D01*
X690664Y331305D01*
X701510Y331305D01*
X685139Y336729D02*
X685139Y320459D01*
X685139Y336729D02*
X677004Y336729D01*
X674292Y334017D01*
X674292Y328594D01*
X677004Y325882D01*
X685139Y325882D01*
X668767Y336729D02*
X666056Y336729D01*
X666056Y325882D01*
X668767Y325882D02*
X663344Y325882D01*
X666056Y342152D02*
X666056Y344864D01*
X657853Y342152D02*
X655141Y342152D01*
X655141Y325882D01*
X657853Y325882D02*
X652429Y325882D01*
D11*
X712500Y596900D03*
X684500Y596900D03*
D12*
X647700Y572800D03*
X647700Y544800D03*
D11*
X963900Y431800D03*
X991900Y431800D03*
X928400Y419100D03*
X900400Y419100D03*
D13*
X1041400Y486410D03*
D14*
X1041400Y504190D03*
D15*
X1115060Y482600D03*
D16*
X1094740Y482600D03*
D17*
X1054500Y402654D02*
X1054500Y384747D01*
X1104500Y384747D02*
X1104500Y402654D01*
X914800Y389954D02*
X914800Y372047D01*
X964800Y372047D02*
X964800Y389954D01*
D18*
X749300Y596900D03*
X647700Y596900D03*
X825500Y469900D03*
X723900Y469900D03*
D15*
X876300Y558800D03*
X977900Y558800D03*
D19*
X660400Y520700D03*
X660400Y419100D03*
D15*
X711200Y431800D03*
X812800Y431800D03*
D20*
X1016000Y368300D03*
X1016000Y469900D03*
D21*
X692404Y571500D02*
X679196Y571500D01*
X679196Y546100D02*
X692404Y546100D01*
X755396Y546100D02*
X768604Y546100D01*
X768604Y571500D02*
X755396Y571500D01*
X692404Y520700D02*
X679196Y520700D01*
X679196Y495300D02*
X692404Y495300D01*
X755396Y520700D02*
X768604Y520700D01*
X768604Y495300D02*
X755396Y495300D01*
X983996Y457200D02*
X997204Y457200D01*
X997204Y482600D02*
X983996Y482600D01*
X921004Y482600D02*
X907796Y482600D01*
X907796Y457200D02*
X921004Y457200D01*
X983996Y508000D02*
X997204Y508000D01*
X997204Y533400D02*
X983996Y533400D01*
X921004Y508000D02*
X907796Y508000D01*
X907796Y533400D02*
X921004Y533400D01*
D22*
X741934Y451866D02*
X723900Y469900D01*
X741934Y451866D02*
X812800Y451866D01*
X812800Y431800D01*
X723900Y469900D02*
X711200Y469900D01*
X685800Y495300D01*
X1054500Y393700D02*
X1067159Y406359D01*
X1067076Y431801D01*
X1066910Y482600D01*
X1066800Y516276D01*
X1049676Y533400D01*
X990600Y533400D01*
X843534Y462430D02*
X832970Y451866D01*
X843534Y462430D02*
X843534Y477370D01*
X832970Y451866D02*
X812800Y451866D01*
X843534Y477370D02*
X828040Y492864D01*
X1066910Y482600D02*
X1094740Y482600D01*
X1094740Y482600D01*
X769366Y564134D02*
X762000Y571500D01*
X828040Y527372D02*
X828040Y492864D01*
X791278Y564134D02*
X769366Y564134D01*
X791278Y564134D02*
X828040Y527372D01*
X685800Y495300D02*
X660400Y469900D01*
X660400Y444500D01*
X653034Y437134D01*
X652930Y437134D01*
X642366Y426570D01*
X642366Y411630D01*
X652930Y401066D02*
X691134Y401066D01*
X652930Y401066D02*
X642366Y411630D01*
X831813Y391160D02*
X834353Y393700D01*
X838200Y393700D01*
X701040Y391160D02*
X691134Y401066D01*
X701040Y391160D02*
X831813Y391160D01*
X838200Y393700D02*
X901700Y457200D01*
X914400Y457200D01*
X762000Y571500D02*
X762000Y584096D01*
X774700Y596796D02*
X774700Y596900D01*
X995934Y566270D02*
X995934Y551330D01*
X990600Y545996D01*
X990600Y533400D01*
X995934Y566270D02*
X965304Y596900D01*
X774700Y596900D01*
X774700Y596796D02*
X762000Y584096D01*
D23*
X977500Y368300D02*
X1016000Y368300D01*
X977500Y368300D02*
X964800Y381000D01*
X1024890Y469900D02*
X1041400Y486410D01*
X1024890Y469900D02*
X1016000Y469900D01*
X698500Y419100D02*
X660400Y419100D01*
X698500Y419100D02*
X711200Y431800D01*
X698500Y419100D02*
X711200Y406400D01*
X825500Y406400D01*
X901700Y482600D02*
X914400Y482600D01*
X901700Y482600D02*
X825500Y406400D01*
D24*
X878840Y556260D02*
X876300Y558800D01*
X901700Y491825D02*
X901700Y482600D01*
X878840Y514685D02*
X878840Y556260D01*
X878840Y514685D02*
X901700Y491825D01*
D23*
X749300Y596900D02*
X736600Y584200D01*
X736600Y558800D01*
X749300Y546100D02*
X762000Y546100D01*
X749300Y546100D02*
X736600Y558800D01*
D24*
X762000Y546100D02*
X787400Y546100D01*
X812546Y520954D01*
X812546Y520700D01*
X812546Y486446D01*
X825500Y473492D02*
X825500Y469900D01*
X825500Y473492D02*
X812546Y486446D01*
D23*
X685800Y546100D02*
X675972Y546100D01*
X647700Y572800D02*
X647700Y596900D01*
X649272Y572800D02*
X675972Y546100D01*
X649272Y572800D02*
X647700Y572800D01*
D24*
X685800Y546100D02*
X698500Y546100D01*
X710438Y534162D01*
X710438Y517987D01*
X748873Y479552D01*
X775127Y479552D01*
X784352Y488777D01*
X784352Y501823D01*
X775127Y511048D01*
X771652Y511048D01*
X762000Y520700D01*
X914400Y533400D02*
X924052Y523748D01*
X927527Y523748D01*
X953800Y497475D01*
X953800Y441900D01*
X963900Y431800D01*
X901273Y517652D02*
X892048Y526877D01*
X892048Y539923D01*
X901273Y549148D01*
X927527Y549148D01*
X968248Y501477D02*
X977473Y492252D01*
X980948Y492252D01*
X990600Y482600D01*
X914400Y508000D02*
X904748Y517652D01*
X901273Y517652D01*
X927527Y549148D02*
X947888Y528788D01*
X968248Y508427D01*
X968248Y501477D01*
X947888Y528788D02*
X977900Y558800D01*
X976600Y558800D01*
X924052Y498348D02*
X914400Y508000D01*
X924052Y498348D02*
X927527Y498348D01*
X939800Y486075D01*
X939800Y430500D02*
X928400Y419100D01*
X939800Y430500D02*
X939800Y486075D01*
D23*
X1040511Y508000D02*
X1041400Y504190D01*
X1040511Y508000D02*
X990600Y508000D01*
X685800Y520700D02*
X660400Y520700D01*
D24*
X712500Y595600D02*
X712500Y596900D01*
X712500Y595600D02*
X723646Y584454D01*
X723646Y530179D01*
X758525Y495300D02*
X762000Y495300D01*
X758525Y495300D02*
X723646Y530179D01*
D25*
X0Y0D02*
X1600000Y0D01*
X1600000Y1000000D01*
X0Y1000000D01*
X0Y0D01*
M02*
